<svg xmlns="http://www.w3.org/2000/svg" xmlns:xlink="http://www.w3.org/1999/xlink" viewBox="0 0 204.58 142.11"><defs><style>.cls-1{fill:url(#linear-gradient);}.cls-2{fill:url(#linear-gradient-2);}.cls-3{fill:url(#linear-gradient-3);}</style><linearGradient id="linear-gradient" x1="204.58" y1="29.22" x2="4.1" y2="29.22" gradientUnits="userSpaceOnUse"><stop offset="0" stop-color="#c1272d"/><stop offset="0.15" stop-color="#af2533"/><stop offset="0.45" stop-color="#7f1f43"/><stop offset="0.88" stop-color="#32175c"/><stop offset="1" stop-color="#1b1464"/></linearGradient><linearGradient id="linear-gradient-2" y1="71.53" x2="204.17" y2="71.53" gradientUnits="userSpaceOnUse"><stop offset="0" stop-color="#1b1464"/><stop offset="0.12" stop-color="#211562"/><stop offset="0.29" stop-color="#33175c"/><stop offset="0.48" stop-color="#4f1a53"/><stop offset="0.69" stop-color="#771f45"/><stop offset="0.91" stop-color="#aa2435"/><stop offset="1" stop-color="#c1272d"/></linearGradient><linearGradient id="linear-gradient-3" x1="200.48" y1="112.89" x2="0" y2="112.89" gradientUnits="userSpaceOnUse"><stop offset="0" stop-color="#c1272d"/><stop offset="0.12" stop-color="#b82630"/><stop offset="0.31" stop-color="#9e2339"/><stop offset="0.56" stop-color="#751e46"/><stop offset="0.85" stop-color="#3c1859"/><stop offset="1" stop-color="#1b1464"/></linearGradient></defs><title>P1_icon</title><g id="Layer_2" data-name="Layer 2"><g id="Layer_1-2" data-name="Layer 1"><path class="cls-1" d="M4.1,29.22A29.22,29.22,0,0,0,33.32,58.44h142a29.22,29.22,0,1,0,0-58.44h-142A29.22,29.22,0,0,0,4.1,29.22Z"/><path class="cls-2" d="M3.51,128.44c8.07,14,27.47,17.87,43.34,8.71L186.54,56.51c15.86-9.16,22.19-27.92,14.12-41.89S173.18-3.26,157.32,5.9L17.63,86.54C1.76,95.71-4.56,114.46,3.51,128.44Z"/><path class="cls-3" d="M0,112.89a29.22,29.22,0,0,0,29.22,29.22h142a29.22,29.22,0,0,0,0-58.44h-142A29.22,29.22,0,0,0,0,112.89Z"/></g></g></svg>