<svg xmlns="http://www.w3.org/2000/svg" xmlns:xlink="http://www.w3.org/1999/xlink" viewBox="0 0 688.69 710.26"><defs><style>.cls-1{fill:none;}.cls-2{clip-path:url(#clip-path);}.cls-3{fill:#19b3ff;}</style><clipPath id="clip-path"><rect class="cls-1" x="60.68" y="49.87" width="600" height="600"/></clipPath></defs><title>Asset 15</title><g id="Layer_2" data-name="Layer 2"><g id="pattern-3"><rect class="cls-1" x="60.68" y="49.87" width="600" height="600"/><g class="cls-2"><path class="cls-3" d="M627.32,154.13V140.77a2.65,2.65,0,0,0-2.65-2.65H591a2.65,2.65,0,0,0-2.65,2.65v13.36a2.65,2.65,0,0,0,2.65,2.64h33.69A2.65,2.65,0,0,0,627.32,154.13Zm-3-.36h-33V141.12h33Z"/><path class="cls-3" d="M607.84,149.45a2,2,0,0,0,0-4h0a2,2,0,0,0,0,4Z"/><path class="cls-3" d="M605.78,116H594.22a1.5,1.5,0,0,0,0,3h11.56a1.5,1.5,0,0,0,0-3Z"/><path class="cls-3" d="M611.81,116h0a1.5,1.5,0,1,0,1.51,1.5A1.49,1.49,0,0,0,611.8,116Z"/><path class="cls-3" d="M635.08,161.13V132.68a2,2,0,0,0-2-2h-9.7c4.9-4.16,7.84-10.36,8.23-17.69a5,5,0,0,0,3.47-4.78v-.7a5.07,5.07,0,0,0-5.06-5.06h-20.2V93.64H632a3.13,3.13,0,0,0,3.12-3.13v-5A6.7,6.7,0,0,0,640.31,79V70.69a6.7,6.7,0,0,0-5.23-6.52V61.92a2,2,0,1,0-4,0v2.25a6.7,6.7,0,0,0-5.22,6.52V79a6.7,6.7,0,0,0,5.22,6.52v4.11H609a3.13,3.13,0,0,0-3.13,3.12v9.69H585.63a5.07,5.07,0,0,0-5.07,5.06v.7A5,5,0,0,0,584,113c.4,7.32,3.33,13.52,8.24,17.69h-9.71a2,2,0,0,0-2,2v28.45a11.38,11.38,0,0,0-5.43,10,2,2,0,0,0,2,2h61.38a2,2,0,0,0,2-2A11.36,11.36,0,0,0,635.08,161.13ZM629.86,79V70.69A2.69,2.69,0,0,1,632.55,68h1.07a2.7,2.7,0,0,1,2.69,2.69V79a2.7,2.7,0,0,1-2.69,2.69h-1.07A2.69,2.69,0,0,1,629.86,79Zm-45.3,28.5a1.07,1.07,0,0,1,1.07-1.06H630a1.06,1.06,0,0,1,1.06,1.06v.7a1.06,1.06,0,0,1-1.06,1.07H585.63a1.07,1.07,0,0,1-1.07-1.07Zm3.49,5.77h39.54c-.58,8.26-4.82,14.53-11.84,17.4H599.88C592.87,127.8,588.64,121.53,588.05,113.28Zm-3.49,21.4h46.52v25.53H584.56Zm23.26,34.49H579.33a7.64,7.64,0,0,1,3.78-5h49.42a7.64,7.64,0,0,1,3.78,5Z"/><path class="cls-3" d="M184.68,269.65a8.18,8.18,0,0,0-7.93-6.22H156.69a8.18,8.18,0,0,0-7.94,6.22,7,7,0,0,0-6.32,7v.92a5,5,0,0,0,4.64,5l3.88,38.8a6.45,6.45,0,0,0,6.43,5.81h18.68a6.43,6.43,0,0,0,6.42-5.81l3.88-38.8a5,5,0,0,0,4.65-5v-.92A7,7,0,0,0,184.68,269.65Zm-28-3.22h20.06a5.18,5.18,0,0,1,4.78,3.18H151.9A5.2,5.2,0,0,1,156.69,266.43Zm24.77,24.86H152l-.87-8.76h31.24Zm-2,20.06H154l-1.71-17.06h28.89Zm-3.4,11.75H157.38a2.45,2.45,0,0,1-2.45-2.21l-.65-6.54h24.88l-.66,6.54A2.44,2.44,0,0,1,176.06,323.1ZM187,277.53a1,1,0,0,1-1,1H147.43a1,1,0,0,1-1-1v-.92a3,3,0,0,1,3-3H184a3,3,0,0,1,3,3Z"/><path class="cls-3" d="M166.72,309.62a6.52,6.52,0,1,0-6.52-6.51A6.52,6.52,0,0,0,166.72,309.62Zm0-10a3.52,3.52,0,1,1-3.52,3.52A3.52,3.52,0,0,1,166.72,299.59Z"/><path class="cls-3" d="M359.09,299.54a11.48,11.48,0,0,0-7.25-3.21c-1.42-8.23-6.52-14.05-12.8-14.39-7.86-.42-14.72,8.13-15.3,19.05-.33,6,1.24,11.51,4.28,15.44-.68,4.34.27,8.4,3,11.16a11.71,11.71,0,0,0,8.5,3.28,17.72,17.72,0,0,0,3.1-.29,25.93,25.93,0,0,0,19.43-19.44C363,306.46,361.89,302.34,359.09,299.54Zm-27,21.88c-1.06-4.35,1.07-10.43,5.75-15.11,3.88-3.89,8.75-6,12.78-6a8,8,0,0,1,5.18,1.65c-2.66,7.37-8.08,9.59-13.34,11.72C338.29,315.35,334.05,317.09,332.07,321.42Zm15.73-24.91-.31,0a23,23,0,0,0-8.94,3.94c-1.44-4.61-2-9.11.91-14.48C343.37,286.62,346.65,290.8,347.8,296.51Zm-20.07,4.69c.38-7,3.9-13,8.21-14.75-2.72,6.45-1.31,12,.1,16.05-.36.32-.71.64-1.05,1a26,26,0,0,0-5.43,7.83A21.38,21.38,0,0,1,327.73,301.2Zm24.59,19.62c-5.95,5.95-14.18,7.79-18.2,4.14.83-5,4.5-6.51,9.45-8.52s10.9-4.43,14.25-11.58C359.41,309.24,357.31,315.83,352.32,320.82Z"/><path class="cls-3" d="M321,313.49h0a2,2,0,1,0-2.83.09,1.94,1.94,0,0,0,1.37.55A2,2,0,0,0,321,313.49Z"/><path class="cls-3" d="M319.22,318.15a1.51,1.51,0,0,0,0,2.12,1.53,1.53,0,0,0,1.06.44,1.49,1.49,0,0,0,1.06-.44h0a1.49,1.49,0,0,0,0-2.11A1.5,1.5,0,0,0,319.22,318.15Z"/><path class="cls-3" d="M357.32,293.63a2,2,0,0,0,1.41-.59h0a2,2,0,1,0-2.83-2.82,2,2,0,0,0,0,2.82A2,2,0,0,0,357.32,293.63Z"/><path class="cls-3" d="M138.2,172.1c-5.56-5.56-16.38-3.8-24.11,3.94s-9.5,18.54-3.94,24.1,16.37,3.79,24.11-3.94S143.75,177.66,138.2,172.1Zm-21.28,6.77c5.83-5.84,13.85-7.71,18-4.36-2.66,7.36-8.08,9.57-13.34,11.71-4.14,1.68-8.39,3.42-10.36,7.75C110.11,189.62,112.24,183.54,116.92,178.87Zm-3.7,18.65c.84-5,4.51-6.51,9.45-8.52s10.9-4.44,14.25-11.58c1.59,4.37-.5,11-5.49,16C125.47,199.33,117.24,201.16,113.22,197.52Z"/><path class="cls-3" d="M511.9,164.8a1.5,1.5,0,0,0,1.5-1.5,4.27,4.27,0,0,1,1.75-3.47,7.35,7.35,0,0,0,2.09-9.31L516,148.24a1.5,1.5,0,1,0-2.65,1.41l1.22,2.29a4.32,4.32,0,0,1-1.23,5.48,7.34,7.34,0,0,0-3,5.88A1.5,1.5,0,0,0,511.9,164.8Z"/><path class="cls-3" d="M513.8,166.79a1.5,1.5,0,0,0-1.5,1.5h0a1.5,1.5,0,1,0,1.5-1.51Z"/><path class="cls-3" d="M502.31,169a1.51,1.51,0,0,0,1.32.79,1.53,1.53,0,0,0,.71-.18,1.5,1.5,0,0,0,.62-2l-1.22-2.27a4.33,4.33,0,0,1,1.24-5.49,7.34,7.34,0,0,0,2.09-9.31l-1.21-2.28a1.5,1.5,0,0,0-2.65,1.41l1.22,2.28a4.35,4.35,0,0,1-1.24,5.49,7.36,7.36,0,0,0-2.1,9.31Z"/><path class="cls-3" d="M522.65,169a1.5,1.5,0,0,0,1.32.79,1.46,1.46,0,0,0,.7-.18,1.49,1.49,0,0,0,.62-2l-1.21-2.27a4.33,4.33,0,0,1,1.23-5.49,7.35,7.35,0,0,0,2.1-9.31l-1.22-2.28a1.5,1.5,0,1,0-2.64,1.41l1.21,2.28a4.33,4.33,0,0,1-1.23,5.49,7.35,7.35,0,0,0-2.1,9.31Z"/><path class="cls-3" d="M537.71,179.48h-2.58V179a4,4,0,0,0-4-4H497.37a4,4,0,0,0-4,4v11.09a16.8,16.8,0,0,0,16.78,16.79h8.2A16.81,16.81,0,0,0,535,192.48h2.76a6.5,6.5,0,0,0,0-13Zm-19.36,23.43h-8.2a12.81,12.81,0,0,1-12.78-12.79v-4.91h9.15a1.5,1.5,0,0,0,0-3h-9.15V179h33.76v11.09A12.8,12.8,0,0,1,518.35,202.91Zm19.36-14.43h-2.58v-5h2.58a2.5,2.5,0,0,1,0,5Z"/><path class="cls-3" d="M222,200.65h0a1.5,1.5,0,1,0,1.51,1.5A1.5,1.5,0,0,0,222,200.65Z"/><path class="cls-3" d="M286.41,162.78A22.05,22.05,0,0,0,261,158.66a6.47,6.47,0,0,0-5.75-3.54H206.4a4.23,4.23,0,0,0-3.28,6.9l5.51,6.77v9.37L198,210.33a10.92,10.92,0,0,0,10.36,14.36H262a10.91,10.91,0,0,0,10.36-14.36L261.68,178.2a9.14,9.14,0,0,1,18.28.19v9a6.46,6.46,0,1,0,12.91,0v-9A21.92,21.92,0,0,0,286.41,162.78Zm-80.21-3.53a.2.2,0,0,1,.2-.13h48.81a2.46,2.46,0,0,1,2.45,2.46v4.5H211.58l-5.35-6.58A.2.2,0,0,1,206.2,159.25Zm51.46,10.83v6.4h-45v-6.4Zm9.93,47.74a6.85,6.85,0,0,1-5.61,2.87H208.31a6.91,6.91,0,0,1-6.56-9.1l2.63-7.93h12a1.5,1.5,0,0,0,0-3h-11l6.7-20.18h46.14l6.7,20.18H227.53a1.5,1.5,0,0,0,0,3h38.38l2.64,7.93A6.83,6.83,0,0,1,267.59,217.82Zm21.28-30.42a2.46,2.46,0,0,1-2.46,2.46A2.44,2.44,0,0,1,284,187.4v-9a13.14,13.14,0,0,0-22.3-9.43v-6.13a18,18,0,0,1,27.21,15.56Z"/><path class="cls-3" d="M496.82,103.56h-.11a1.5,1.5,0,0,0,0,3h.11a1.5,1.5,0,0,0,0-3Z"/><path class="cls-3" d="M551.8,66.67a2,2,0,0,0-2.42-1.47L502.67,76.69l-.39-1.33,3-7.45a4.19,4.19,0,0,0-.42-3.94,4.24,4.24,0,0,0-3.5-1.86H476.71a4.24,4.24,0,0,0-3.93,5.8l3,7.45-7.59,25.79a10.93,10.93,0,0,0,10.48,14h20.74a10.92,10.92,0,0,0,10.47-14L503.8,80.53l46.53-11.45A2,2,0,0,0,551.8,66.67Zm-45.53,36.89h-3.88a1.5,1.5,0,0,0,0,3h3.5a7.07,7.07,0,0,1-1,1.82,6.87,6.87,0,0,1-5.54,2.77H478.65a6.87,6.87,0,0,1-5.54-2.77,7.1,7.1,0,0,1-1-1.82h19.11a1.5,1.5,0,0,0,0-3H471.77a7.38,7.38,0,0,1,.24-1.28l7.51-25.53h2.91a1.5,1.5,0,1,0,0-3h-3l-2.93-7.32a.2.2,0,0,1,0-.21.21.21,0,0,1,.19-.11h24.62a.21.21,0,0,1,.19.11.2.2,0,0,1,0,.21l-2.93,7.32H488a1.5,1.5,0,0,0,0,3h10.52L506,102.28A8.45,8.45,0,0,1,506.27,103.56Z"/><path class="cls-3" d="M387.36,204.41a4.85,4.85,0,1,0,4.84,4.84A4.84,4.84,0,0,0,387.36,204.41Zm0,6.69a1.85,1.85,0,1,1,1.84-1.85A1.84,1.84,0,0,1,387.36,211.1Z"/><path class="cls-3" d="M435.38,162.06l-4.72-8.31a4.37,4.37,0,0,0-3.8-2.22h-16.2l-17.37-6.75,2.51-8.16a3.11,3.11,0,0,0-3-4H382.47a3.11,3.11,0,0,0-3,4l2.46,7.94-17.89,7h-8.8a4.23,4.23,0,0,0-3.5,6.6l12.55,18.54,2.1,10.49v10.68l-7.36,27.57a6.46,6.46,0,0,0,6.24,8.12h44.12a6.46,6.46,0,0,0,6.24-8.12l-7.35-27.57V187.16l4.15-20.77h7a1.75,1.75,0,0,1,1.5.82,1.78,1.78,0,0,1,.17,1.65l-8.54,15.85a.91.91,0,0,0-.07.14,5.79,5.79,0,0,0,3.06,7.7,5.85,5.85,0,0,0,2.26.46,5.77,5.77,0,0,0,5.23-3.33l12.45-23.62A4.41,4.41,0,0,0,435.38,162.06Zm-24.93-6.45a.22.22,0,0,1,.05.19L404.67,185h-6.74l3.65-29.43h8.7A.25.25,0,0,1,410.45,155.61Zm-40,40.49V189h33.89v7.14Zm-6.15-40.49a.25.25,0,0,1,.18-.08h8.69l.89,7.19a1.5,1.5,0,0,0,1.49,1.31h.19a1.5,1.5,0,0,0,1.3-1.67l-.84-6.82h22.39L394.91,185h-15.1l-2.1-17a1.5,1.5,0,0,0-3,.36L376.79,185h-6.73l-1.89-9.45v0l-3.94-19.69A.26.26,0,0,1,364.27,155.61Zm27.35-19-2.11,6.9a10.87,10.87,0,0,0-3.73-.1l-2.11-6.8Zm-6.77,11.15.14-.05h0l0,0a6.92,6.92,0,0,1,4.81.07l.25.1.12,0h0l9.35,3.64h-24.5Zm-29.76,8.14a.19.19,0,0,1,0-.23.21.21,0,0,1,.2-.12h5a4.22,4.22,0,0,0,.06,1.06l2,9.95Zm8.26,72.69a2.46,2.46,0,0,1-.42-2.13l7-26.34h6.84l-3.65,29.43H365.3A2.44,2.44,0,0,1,363.35,228.57Zm48,0a2.44,2.44,0,0,1-1.95,1h-7.84l-.6-4.86a1.5,1.5,0,0,0-3,.37l.56,4.49H376.17l3.65-29.43h15.09l2.4,19.37a1.5,1.5,0,0,0,1.49,1.31H399a1.5,1.5,0,0,0,1.31-1.67l-2.36-19h6.84l7,26.34A2.42,2.42,0,0,1,411.37,228.57Zm8.16-40.71a.93.93,0,0,0,0,.1,1.81,1.81,0,0,1-3.44-.76,1.86,1.86,0,0,1,.13-.67l8.54-15.86.07-.13a5.8,5.8,0,0,0-5.3-8.15h-6.22l1.16-5.8a4.77,4.77,0,0,0,.07-1.06h12.37a.36.36,0,0,1,.32.19L431.9,164a.49.49,0,0,1,.06.24Z"/><path class="cls-3" d="M258.42,410.83V397.47a2.65,2.65,0,0,0-2.64-2.65h-33.7a2.65,2.65,0,0,0-2.64,2.65v13.36a2.65,2.65,0,0,0,2.64,2.65h33.7A2.65,2.65,0,0,0,258.42,410.83Zm-3-.35h-33V397.82h33Z"/><path class="cls-3" d="M239,406.15a2,2,0,0,0,0-4h0a2,2,0,1,0,0,4Z"/><path class="cls-3" d="M236.89,372.66H225.33a1.5,1.5,0,1,0,0,3h11.56a1.5,1.5,0,0,0,0-3Z"/><path class="cls-3" d="M242.92,372.65h0a1.5,1.5,0,1,0,1.51,1.5A1.5,1.5,0,0,0,242.91,372.65Z"/><path class="cls-3" d="M266.19,417.83V389.38a2,2,0,0,0-2-2h-9.7c4.9-4.16,7.83-10.36,8.23-17.68a5.06,5.06,0,0,0,3.47-4.78v-.7a5.07,5.07,0,0,0-5.06-5.07h-20.2v-8.81h22.13a3.13,3.13,0,0,0,3.13-3.13v-5a6.7,6.7,0,0,0,5.22-6.52v-8.32a6.7,6.7,0,0,0-5.22-6.52v-2.25a2,2,0,0,0-4,0v2.25a6.69,6.69,0,0,0-5.22,6.52v8.32a6.69,6.69,0,0,0,5.22,6.52v4.11H240.06a3.13,3.13,0,0,0-3.13,3.12v9.69h-20.2a5.07,5.07,0,0,0-5.06,5.07v.7a5.06,5.06,0,0,0,3.46,4.78c.4,7.32,3.34,13.51,8.24,17.68h-9.7a2,2,0,0,0-2,2v28.45a11.36,11.36,0,0,0-5.43,10.05,2,2,0,0,0,2,2h61.38a2,2,0,0,0,2-2A11.36,11.36,0,0,0,266.19,417.83ZM261,335.71v-8.32a2.68,2.68,0,0,1,2.68-2.68h1.08a2.68,2.68,0,0,1,2.68,2.68v8.32a2.69,2.69,0,0,1-2.68,2.69h-1.08A2.69,2.69,0,0,1,261,335.71Zm-45.3,28.51a1.07,1.07,0,0,1,1.06-1.07h44.4a1.07,1.07,0,0,1,1.06,1.07v.7a1.07,1.07,0,0,1-1.06,1.06h-44.4a1.07,1.07,0,0,1-1.06-1.06Zm3.49,5.76H258.7c-.59,8.27-4.83,14.53-11.84,17.4H231C224,384.5,219.74,378.24,219.16,370Zm-3.49,21.4h46.52v25.54H215.67Zm23.26,34.5H210.44a7.62,7.62,0,0,1,3.78-5h49.42a7.62,7.62,0,0,1,3.78,5Z"/><path class="cls-3" d="M514.57,454.73a8.19,8.19,0,0,0-7.94-6.22H486.58a8.19,8.19,0,0,0-7.94,6.22,7,7,0,0,0-6.32,7v.91a5,5,0,0,0,4.64,5l3.88,38.79a6.44,6.44,0,0,0,6.43,5.82h18.67a6.44,6.44,0,0,0,6.43-5.82l3.88-38.79a5,5,0,0,0,4.64-5v-.91A7,7,0,0,0,514.57,454.73Zm-28-3.22h20.05a5.21,5.21,0,0,1,4.79,3.19H481.79A5.2,5.2,0,0,1,486.58,451.51Zm24.77,24.86H481.86l-.88-8.76h31.24Zm-2,20.06H483.87l-1.71-17.06h28.89Zm-3.4,11.76H487.27a2.45,2.45,0,0,1-2.45-2.21l-.65-6.55H509l-.65,6.55A2.45,2.45,0,0,1,505.94,508.19Zm10.95-45.58a1,1,0,0,1-1,1H477.32a1,1,0,0,1-1-1v-.91a3,3,0,0,1,3-3h34.57a3,3,0,0,1,3,3Z"/><path class="cls-3" d="M496.6,494.71a6.52,6.52,0,1,0-6.51-6.52A6.53,6.53,0,0,0,496.6,494.71Zm0-10a3.52,3.52,0,1,1-3.51,3.51A3.52,3.52,0,0,1,496.6,484.68Z"/><path class="cls-3" d="M583.69,488.94a25.93,25.93,0,0,0,19.44,19.43,16.73,16.73,0,0,0,3.1.29,11.71,11.71,0,0,0,8.5-3.28c2.76-2.76,3.71-6.82,3-11.15,3-3.94,4.61-9.49,4.29-15.45-.59-10.91-7.45-19.47-15.3-19-6.28.34-11.38,6.16-12.81,14.4a11.37,11.37,0,0,0-7.25,3.21C583.89,480.13,582.83,484.25,583.69,488.94Zm19.65,2.52c-5.26-2.14-10.69-4.35-13.35-11.73a8.1,8.1,0,0,1,5.19-1.65c4,0,8.89,2.14,12.78,6,4.67,4.68,6.8,10.76,5.74,15.11C611.73,494.88,607.48,493.14,603.34,491.46Zm3-27.65c2.89,5.36,2.35,9.86.91,14.48a22.78,22.78,0,0,0-9-3.94l-.3-.05C599.12,468.59,602.41,464.41,606.32,463.81Zm9.89,25.29a26,26,0,0,0-5.42-7.82c-.35-.35-.7-.67-1-1,1.4-4.09,2.82-9.6.1-16.05,4.3,1.75,7.83,7.72,8.2,14.75A21.26,21.26,0,0,1,616.21,489.1ZM588,482.65c3.34,7.15,9.32,9.58,14.25,11.58s8.61,3.52,9.45,8.52c-4,3.65-12.26,1.81-18.21-4.14C588.46,493.62,586.36,487,588,482.65Z"/><path class="cls-3" d="M624.82,491.28h0a2,2,0,1,1,1.47.64A2,2,0,0,1,624.81,491.27Z"/><path class="cls-3" d="M626.55,495.94a1.49,1.49,0,0,1,0,2.12,1.5,1.5,0,0,1-2.12,0h0a1.5,1.5,0,0,1,2.13-2.11Z"/><path class="cls-3" d="M588.45,471.42a2,2,0,0,1-1.41-.58h0a2,2,0,1,1,1.42.59Z"/><path class="cls-3" d="M290.85,514.36c-5.56,5.56-3.79,16.37,3.94,24.1s18.55,9.5,24.11,3.94S322.69,526,315,518.3,296.41,508.8,290.85,514.36Zm6.77,21.27c-5.83-5.83-7.71-13.85-4.35-18,7.36,2.67,9.57,8.09,11.7,13.34,1.69,4.15,3.43,8.39,7.76,10.37C308.38,542.44,302.3,540.31,297.62,535.63Zm18.65,3.7c-5-.84-6.51-4.51-8.52-9.45s-4.43-10.9-11.58-14.25c4.38-1.59,11,.51,16,5.49C318.08,527.08,319.92,535.31,316.27,539.33Z"/><path class="cls-3" d="M216.59,555.17a1.5,1.5,0,0,0,1.5-1.5,4.24,4.24,0,0,1,1.75-3.46,7.35,7.35,0,0,0,2.09-9.31l-1.22-2.28a1.5,1.5,0,0,0-2.65,1.4l1.22,2.29a4.34,4.34,0,0,1-1.23,5.49,7.32,7.32,0,0,0-3,5.87A1.5,1.5,0,0,0,216.59,555.17Z"/><path class="cls-3" d="M218.48,557.17a1.5,1.5,0,0,0-1.5,1.5h0a1.5,1.5,0,1,0,1.5-1.51Z"/><path class="cls-3" d="M207,559.38a1.5,1.5,0,0,0,1.32.8A1.53,1.53,0,0,0,209,560a1.5,1.5,0,0,0,.62-2l-1.22-2.28a4.32,4.32,0,0,1,1.24-5.49,7.35,7.35,0,0,0,2.09-9.31l-1.21-2.27A1.5,1.5,0,0,0,207.9,540l1.22,2.28a4.33,4.33,0,0,1-1.24,5.48,7.35,7.35,0,0,0-2.1,9.31Z"/><path class="cls-3" d="M227.33,559.38a1.5,1.5,0,0,0,1.33.8,1.46,1.46,0,0,0,.7-.18,1.5,1.5,0,0,0,.62-2l-1.21-2.28A4.33,4.33,0,0,1,230,550.2a7.35,7.35,0,0,0,2.1-9.31l-1.22-2.27a1.5,1.5,0,1,0-2.64,1.41l1.21,2.28a4.32,4.32,0,0,1-1.23,5.48,7.35,7.35,0,0,0-2.1,9.31Z"/><path class="cls-3" d="M242.39,569.86h-2.57v-.46a4,4,0,0,0-4-4H202.06a4,4,0,0,0-4,4v11.1a16.8,16.8,0,0,0,16.78,16.78H223a16.78,16.78,0,0,0,16.59-14.42h2.76a6.5,6.5,0,0,0,0-13ZM223,593.28h-8.2a12.8,12.8,0,0,1-12.78-12.78v-4.91h9.15a1.5,1.5,0,1,0,0-3h-9.15V569.4h33.76v11.1A12.79,12.79,0,0,1,223,593.28Zm19.35-14.42h-2.57v-5h2.57a2.5,2.5,0,0,1,0,5Z"/><path class="cls-3" d="M560.25,597.61h0a1.5,1.5,0,1,0,1.51,1.5A1.5,1.5,0,0,0,560.24,597.61Z"/><path class="cls-3" d="M624.68,559.74a22,22,0,0,0-25.45-4.12,6.45,6.45,0,0,0-5.75-3.54H544.67a4.23,4.23,0,0,0-3.28,6.9l5.51,6.77v9.37l-10.68,32.17a10.91,10.91,0,0,0,10.36,14.35h53.67a10.9,10.9,0,0,0,10.36-14.35L600,575.15a9.14,9.14,0,0,1,18.28.19v9a6.46,6.46,0,0,0,12.91,0v-9A21.91,21.91,0,0,0,624.68,559.74Zm-80.21-3.53a.2.2,0,0,1,.2-.13h48.81a2.46,2.46,0,0,1,2.45,2.46V563H549.85l-5.35-6.59A.19.19,0,0,1,544.47,556.21ZM595.93,567v6.4h-45V567Zm9.93,47.73a6.82,6.82,0,0,1-5.61,2.87H546.58a6.91,6.91,0,0,1-6.56-9.09l2.63-7.94h12a1.5,1.5,0,0,0,0-3h-11l6.7-20.17h46.14l6.7,20.17H565.8a1.5,1.5,0,0,0,0,3h38.38l2.64,7.94A6.81,6.81,0,0,1,605.86,614.77Zm21.28-30.41a2.46,2.46,0,1,1-4.91,0v-9a13.16,13.16,0,0,0-13.15-13.14,13,13,0,0,0-9.15,3.72v-6.13a18,18,0,0,1,27.21,15.55Z"/><path class="cls-3" d="M593.88,395.52h-19a1.5,1.5,0,0,0,0,3h19a1.5,1.5,0,0,0,0-3Z"/><path class="cls-3" d="M615.83,364.05l-5.62-10.68a2,2,0,0,0-1.77-1.07h-6.66l6.27-11.93a4.36,4.36,0,0,0-.13-4.31,4.15,4.15,0,0,0-.85-1l3.43-5.56a6.46,6.46,0,0,0-5.5-9.84h-.62l3.07-5.65a4.39,4.39,0,0,0-4.34-6.45L568,311.45a4.38,4.38,0,0,0-3.5,6.17l.92,2h-1.74a6.46,6.46,0,0,0-5.5,9.85l3.43,5.55a4.15,4.15,0,0,0-.85,1,4.36,4.36,0,0,0-.13,4.31l7,13.31a1.19,1.19,0,0,1,.15.58v.08a1.25,1.25,0,0,1-.15.58l-7,13.3a4.38,4.38,0,0,0,2.07,6l-7.16,17.14a11.53,11.53,0,0,0,10.64,16H602.5a11.53,11.53,0,0,0,10.64-16L606,374.25a4.38,4.38,0,0,0,2.07-6l-6.27-11.92h5.45l5,9.61a2,2,0,0,0,1.78,1.07,2,2,0,0,0,.93-.23A2,2,0,0,0,615.83,364.05ZM568.17,316a.38.38,0,0,1,0-.35.4.4,0,0,1,.29-.19l35.08-3.89a.34.34,0,0,1,.36.16.35.35,0,0,1,0,.4l-4.1,7.56h-30Zm-6.61,9a2.42,2.42,0,0,1,2.15-1.26H605a2.45,2.45,0,0,1,2.09,3.75l-4,6.55H565.66l-4-6.55A2.42,2.42,0,0,1,561.56,324.91Zm2.64,13.6a.37.37,0,0,1,0-.38.35.35,0,0,1,.33-.18h39.63a.35.35,0,0,1,.33.18.37.37,0,0,1,0,.38l-7,13.3a4.31,4.31,0,0,0-.22.49H571.41a2.62,2.62,0,0,0-.22-.48ZM608.77,400a7.41,7.41,0,0,1-6.27,3.36H566.21a7.53,7.53,0,0,1-7-10.43l7.64-18.28h34.91l7.64,18.28A7.4,7.4,0,0,1,608.77,400Zm-11.25-43.22,7,13.31a.35.35,0,0,1,0,.37.36.36,0,0,1-.33.19H564.54a.36.36,0,0,1-.33-.19.35.35,0,0,1,0-.37l7-13.31a3.41,3.41,0,0,0,.22-.48H597.3A5.11,5.11,0,0,0,597.52,356.78Z"/><path class="cls-3" d="M369.55,449.05h-.11a1.5,1.5,0,0,0,0,3h.11a1.5,1.5,0,0,0,0-3Z"/><path class="cls-3" d="M424.53,412.15a2,2,0,0,0-2.42-1.46L375.4,422.18l-.39-1.34,3-7.44a4.23,4.23,0,0,0-3.92-5.8H349.44a4.24,4.24,0,0,0-3.93,5.8l3,7.44-7.59,25.8a10.91,10.91,0,0,0,10.47,14h20.75a10.91,10.91,0,0,0,10.47-14L376.53,426l46.53-11.45A2,2,0,0,0,424.53,412.15ZM379,449.05h-3.87a1.5,1.5,0,0,0,0,3h3.5a6.85,6.85,0,0,1-6.5,4.58H351.37a6.9,6.9,0,0,1-6.5-4.58H364a1.5,1.5,0,0,0,0-3H344.5a7,7,0,0,1,.24-1.28l7.51-25.53h2.9a1.5,1.5,0,0,0,0-3h-3l-2.94-7.32a.23.23,0,0,1,0-.22.22.22,0,0,1,.19-.1h24.62a.22.22,0,0,1,.19.1.25.25,0,0,1,0,.22l-2.93,7.32H360.73a1.5,1.5,0,0,0,0,3h10.52l7.5,25.53A6.28,6.28,0,0,1,379,449.05Z"/><path class="cls-3" d="M422.9,311.78v32.48a6.36,6.36,0,1,0,12.72,0V313.85h3.81v56.5a6,6,0,0,0,6,6h37.68a6,6,0,0,0,6-6V320.56l10.32-14.86a3.33,3.33,0,0,0-2.73-5.23h-7.86c-1.47-5.43-8.89-9.7-18.74-10.92v-4.26a5.44,5.44,0,0,0-5.44-5.43h-.78a5.44,5.44,0,0,0-5.44,5.43v4.26c-9.85,1.22-17.27,5.49-18.74,10.92h-5.5A11.32,11.32,0,0,0,422.9,311.78Zm20.53-7.31h19.34v22.24c-6.76,1.08-13.19,1.54-19.34-3Zm22.34,0h19.34V319.9h0v6.55c-6.57-2.34-13.05-1.32-19.34-.25Zm19.34,35.25a8,8,0,0,0-4-1.08H465.77v-8.38l.24,0c6.63-1.13,12.91-2.2,19.1.53Zm0,6.72H443.43a4,4,0,0,1,4-3.8h33.68A4,4,0,0,1,485.11,346.44Zm-41.68-6.72V328.53c6.42,3.64,12.94,3.22,19.34,2.23v7.88H447.43A8,8,0,0,0,443.43,339.72Zm19-50.53v-3.9a1.43,1.43,0,0,1,1.44-1.43h.78a1.43,1.43,0,0,1,1.44,1.43v3.9Zm22.09,11.28H444c2.1-3.75,9.83-7.28,20.26-7.28S482.43,296.72,484.53,300.47Zm4.58,13.07v-9.07h6.3Zm-45.68,56.81V350.44h41.68v19.91a2,2,0,0,1-2,2H445.43A2,2,0,0,1,443.43,370.35ZM426.9,311.78a7.31,7.31,0,0,1,7.3-7.31h5.23v5.38h-4.37a3.45,3.45,0,0,0-3.44,3.44v31a2.36,2.36,0,1,1-4.72,0Z"/><path class="cls-3" d="M477.52,355.45a2,2,0,0,1,.35,4h-.18a2,2,0,0,1-2-1.82h0A2,2,0,0,1,477.52,355.45Z"/><path class="cls-3" d="M470.08,361.8a1.5,1.5,0,1,1,.26,3h-.13a1.5,1.5,0,0,1-1.49-1.37h0A1.49,1.49,0,0,1,470.08,361.8Z"/><path class="cls-3" d="M449.66,364.82a2,2,0,1,1,.35,4h-.18a2,2,0,0,1-2-1.83h0A2,2,0,0,1,449.66,364.82Z"/><path class="cls-3" d="M456.75,359.28a1.51,1.51,0,0,1,.27,3h-.13a1.5,1.5,0,0,1-1.5-1.36h0A1.51,1.51,0,0,1,456.75,359.28Z"/><path class="cls-3" d="M450.22,564.55h4.46a1.5,1.5,0,1,1,0,3h-4.46a1.5,1.5,0,0,1,0-3Z"/><path class="cls-3" d="M381.36,570.1a7.31,7.31,0,0,0,7.32,7.32l.65,0h0l42.23-3.83a3.11,3.11,0,0,0,2.83-3.11v-.17h2.69v2.46a8.68,8.68,0,0,0,8.68,8.68h4.69v1.35a2,2,0,0,0,4,0v-1.35h4.68a8.69,8.69,0,0,0,8.69-8.68V561.36h.23a2,2,0,1,0,0-4h-31.2a2,2,0,0,0,0,4h.23v4.92h-2.69v-.38a3.12,3.12,0,0,0-3.12-3.12h-42.6A7.33,7.33,0,0,0,381.36,570.1Zm59.72-8.74h22.74v11.38a4.69,4.69,0,0,1-4.69,4.68H445.76a4.69,4.69,0,0,1-4.68-4.68Zm-10.69,8.28-7.64.7v-3.56h7.64Zm-45,.47a3.32,3.32,0,0,1,3.31-3.33h31.08v3.83L389,573.41a3.31,3.31,0,0,1-3.61-3.3Z"/><path class="cls-3" d="M121.46,497.54a4.85,4.85,0,1,0,4.85-4.84A4.85,4.85,0,0,0,121.46,497.54Zm3,0a1.85,1.85,0,1,1,1.85,1.84A1.84,1.84,0,0,1,124.46,497.54Z"/><path class="cls-3" d="M78.13,454.35,90.58,478a5.77,5.77,0,0,0,5.23,3.33,5.85,5.85,0,0,0,2.26-.46,5.79,5.79,0,0,0,3.55-5.35,5.72,5.72,0,0,0-.49-2.35.91.91,0,0,0-.07-.14l-8.54-15.86a1.82,1.82,0,0,1,.16-1.65,1.8,1.8,0,0,1,1.51-.81h7l4.15,20.76v10.69L98,513.7a6.46,6.46,0,0,0,6.24,8.12h44.12a6.46,6.46,0,0,0,6.24-8.12l-7.36-27.57V475.44l2.1-10.48,12.55-18.55a4.22,4.22,0,0,0-3.51-6.59H149.6l-17.89-7,2.46-7.95a3.11,3.11,0,0,0-3-4H120.85a3.11,3.11,0,0,0-3,4l2.51,8.16L103,439.82H86.81A4.37,4.37,0,0,0,83,442l-4.72,8.31A4.41,4.41,0,0,0,78.13,454.35Zm25.25-10.53h8.71l3.65,29.43H109l-5.83-29.16a.22.22,0,0,1,0-.19A.21.21,0,0,1,103.38,443.82Zm6,40.57v-7.14h33.89v7.14Zm40.08-40.3-3.93,19.69h0l-1.89,9.46h-6.73l2.06-16.61a1.5,1.5,0,0,0-3-.37l-2.11,17H118.76l-3.65-29.43H137.5l-.84,6.82a1.5,1.5,0,0,0,1.3,1.67h.19a1.51,1.51,0,0,0,1.49-1.31l.89-7.19h8.69a.21.21,0,0,1,.22.27ZM130,424.88l-2.11,6.8a11.12,11.12,0,0,0-3.73.09L122,424.88Zm8.56,14.94h-24.5l9.35-3.64h0l.13-.05.25-.1a6.87,6.87,0,0,1,4.81-.07l0,0h0l.13,0Zm12.82,15,2-10a4.12,4.12,0,0,0,.06-1.05h5a.22.22,0,0,1,.21.12.19.19,0,0,1,0,.23Zm-3,63h-7.84l-3.65-29.43h6.84l7,26.34a2.46,2.46,0,0,1-2.37,3.09Zm-46.49-3.09,7-26.34h6.84l-2.36,19a1.5,1.5,0,0,0,1.3,1.67h.19a1.51,1.51,0,0,0,1.49-1.31l2.4-19.37h15.09l3.65,29.43H115.11l.56-4.49a1.5,1.5,0,1,0-3-.37l-.6,4.86h-7.84a2.45,2.45,0,0,1-2.37-3.09ZM81.71,452.57a.55.55,0,0,1,.06-.25L86.49,444a.35.35,0,0,1,.32-.19H99.18a4.13,4.13,0,0,0,.07,1.05l1.16,5.81H94.19a5.79,5.79,0,0,0-5.3,8.15A.83.83,0,0,0,89,459l8.54,15.86a1.85,1.85,0,0,1,.12.67,1.8,1.8,0,0,1-3.43.75.41.41,0,0,1,0-.09Z"/><path class="cls-3" d="M619.83,230.39h-4.46a1.5,1.5,0,0,0,0,3h4.46a1.5,1.5,0,0,0,0-3Z"/><path class="cls-3" d="M681.38,228.62H638.77a3.12,3.12,0,0,0-3.11,3.12v.38H633V227.2h.23a2,2,0,0,0,0-4H602a2,2,0,0,0,0,4h.23v11.38a8.69,8.69,0,0,0,8.68,8.68h4.69v1.35a2,2,0,0,0,4,0v-1.35h4.69a8.68,8.68,0,0,0,8.68-8.68v-2.46h2.69v.17a3.1,3.1,0,0,0,2.83,3.1l42.23,3.84h0c.21,0,.43,0,.65,0a7.32,7.32,0,0,0,0-14.64Zm-52.41,10a4.69,4.69,0,0,1-4.68,4.68H610.91a4.69,4.69,0,0,1-4.68-4.68V227.2H629Zm10.69-6h7.64v3.56l-7.64-.7Zm44,5.78a3.27,3.27,0,0,1-2.53.85l-30.78-2.8v-3.83h31.08a3.32,3.32,0,0,1,3.31,3.33A3.28,3.28,0,0,1,683.61,238.4Z"/><path class="cls-3" d="M19.83,230.39H15.37a1.5,1.5,0,0,0,0,3h4.46a1.5,1.5,0,0,0,0-3Z"/><path class="cls-3" d="M81.38,228.62H38.77a3.12,3.12,0,0,0-3.11,3.12v.38H33V227.2h.23a2,2,0,0,0,0-4H2a2,2,0,0,0,0,4h.23v11.38a8.69,8.69,0,0,0,8.69,8.68H15.6v1.35a2,2,0,0,0,4,0v-1.35h4.69A8.68,8.68,0,0,0,33,238.58v-2.46h2.69v.17a3.1,3.1,0,0,0,2.83,3.1l42.23,3.84h0c.22,0,.43,0,.65,0a7.32,7.32,0,0,0,0-14.64ZM29,238.58a4.69,4.69,0,0,1-4.68,4.68H10.92a4.69,4.69,0,0,1-4.69-4.68V227.2H29Zm10.69-6H47.3v3.56l-7.64-.7Zm44,5.78a3.27,3.27,0,0,1-2.53.85l-30.78-2.8v-3.83H81.38A3.32,3.32,0,0,1,84.69,236,3.28,3.28,0,0,1,83.61,238.4Z"/><path class="cls-3" d="M332.08,88H313a1.5,1.5,0,0,0,0,3h19.06a1.5,1.5,0,0,0,0-3Z"/><path class="cls-3" d="M354,56.53,348.4,45.84a2,2,0,0,0-1.77-1.07H340l6.27-11.93a4.34,4.34,0,0,0-.13-4.3,4.65,4.65,0,0,0-.85-1L348.69,22a6.45,6.45,0,0,0-5.49-9.84h-.63l3.07-5.66A4.38,4.38,0,0,0,341.31,0L306.23,3.92a4.39,4.39,0,0,0-3.51,6.18l.93,2H301.9A6.46,6.46,0,0,0,296.4,22l3.43,5.56a4.15,4.15,0,0,0-.85,1,4.34,4.34,0,0,0-.13,4.3l7,13.31a1.56,1.56,0,0,1,.15.58s0,0,0,0,0,0,0,0a1.47,1.47,0,0,1-.15.58l-7,13.31A4.36,4.36,0,0,0,299,65a4.41,4.41,0,0,0,1.94,1.72l-7.15,17.13a11.53,11.53,0,0,0,10.63,16h36.3a11.53,11.53,0,0,0,10.63-16l-7.15-17.13A4.41,4.41,0,0,0,346.12,65a4.36,4.36,0,0,0,.13-4.31L340,48.77h5.44l5.06,9.62a2,2,0,0,0,1.77,1.07,2,2,0,0,0,.93-.23A2,2,0,0,0,354,56.53ZM306.36,8.44a.38.38,0,0,1,0-.35.36.36,0,0,1,.29-.19L341.75,4a.38.38,0,0,1,.36.17.37.37,0,0,1,0,.39L338,12.13H308Zm-6.6,8.94a2.42,2.42,0,0,1,2.14-1.25h41.3a2.45,2.45,0,0,1,2.09,3.74l-4,6.55h-37.4l-4-6.55A2.42,2.42,0,0,1,299.76,17.38ZM302.39,31a.38.38,0,0,1,0-.37.39.39,0,0,1,.33-.19h39.64a.36.36,0,0,1,.32.19.35.35,0,0,1,0,.37l-7,13.31c-.08.16-.15.32-.22.48H309.61c-.07-.16-.14-.32-.22-.48ZM347,92.48a7.42,7.42,0,0,1-6.26,3.36H304.4a7.54,7.54,0,0,1-6.94-10.44l7.63-18.28H340l7.64,18.28A7.42,7.42,0,0,1,347,92.48ZM335.71,49.25l7,13.31a.37.37,0,0,1,0,.38.35.35,0,0,1-.32.18H302.73a.38.38,0,0,1-.33-.18.39.39,0,0,1,0-.38l7-13.31c.08-.15.15-.31.22-.48h25.88C335.56,48.94,335.63,49.1,335.71,49.25Z"/><path class="cls-3" d="M332.08,688H313a1.5,1.5,0,0,0,0,3h19.06a1.5,1.5,0,0,0,0-3Z"/><path class="cls-3" d="M354,656.53l-5.62-10.69a2,2,0,0,0-1.77-1.07H340l6.27-11.93a4.34,4.34,0,0,0-.13-4.3,4.65,4.65,0,0,0-.85-1l3.42-5.56a6.45,6.45,0,0,0-5.49-9.84h-.63l3.07-5.66a4.38,4.38,0,0,0-4.33-6.44l-35.08,3.89a4.39,4.39,0,0,0-3.51,6.18l.93,2H301.9a6.46,6.46,0,0,0-5.5,9.84l3.43,5.56a4.15,4.15,0,0,0-.85,1,4.34,4.34,0,0,0-.13,4.3l7,13.31a1.56,1.56,0,0,1,.15.58s0,0,0,0,0,0,0,0a1.47,1.47,0,0,1-.15.58l-7,13.31A4.36,4.36,0,0,0,299,665a4.41,4.41,0,0,0,1.94,1.72l-7.15,17.13a11.53,11.53,0,0,0,10.63,16h36.3a11.53,11.53,0,0,0,10.63-16l-7.15-17.13a4.41,4.41,0,0,0,1.94-1.72,4.36,4.36,0,0,0,.13-4.31L340,648.77h5.44l5.06,9.62a2,2,0,0,0,1.77,1.07,2,2,0,0,0,.93-.23A2,2,0,0,0,354,656.53Zm-47.66-48.09a.38.38,0,0,1,0-.35.36.36,0,0,1,.29-.19l35.08-3.9a.38.38,0,0,1,.36.17.37.37,0,0,1,0,.39L338,612.13H308Zm-6.6,8.94a2.42,2.42,0,0,1,2.14-1.25h41.3a2.45,2.45,0,0,1,2.09,3.74l-4,6.55h-37.4l-4-6.55A2.42,2.42,0,0,1,299.76,617.38Zm2.63,13.6a.38.38,0,0,1,0-.37.39.39,0,0,1,.33-.19h39.64a.36.36,0,0,1,.32.19.35.35,0,0,1,0,.37l-7,13.31c-.08.16-.15.32-.22.48H309.61c-.07-.16-.14-.32-.22-.48ZM347,692.48a7.42,7.42,0,0,1-6.26,3.36H304.4a7.54,7.54,0,0,1-6.94-10.44l7.63-18.28H340l7.64,18.28A7.42,7.42,0,0,1,347,692.48Zm-11.25-43.23,7,13.31a.37.37,0,0,1,0,.38.35.35,0,0,1-.32.18H302.73a.38.38,0,0,1-.33-.18.39.39,0,0,1,0-.38l7-13.31c.08-.15.15-.31.22-.48h25.88C335.56,648.94,335.63,649.1,335.71,649.25Z"/><path class="cls-3" d="M167.66,34.38h-5.49c-1.47-5.44-8.89-9.71-18.74-10.93V19.2A5.45,5.45,0,0,0,138,13.76h-.79a5.44,5.44,0,0,0-5.43,5.44v4.25c-9.85,1.22-17.27,5.49-18.75,10.93h-7.85a3.32,3.32,0,0,0-2.73,5.22l10.31,14.86v49.79a6,6,0,0,0,6,6h37.69a6,6,0,0,0,6-6V47.76h3.8V78.17a6.37,6.37,0,0,0,12.73,0V45.69A11.32,11.32,0,0,0,167.66,34.38Zm-9.22,23.28c-6.15,4.49-12.59,4-19.34,3V38.38h19.34ZM136.1,60.11c-6.3-1.07-12.77-2.09-19.35.25V53.81h0V38.38H136.1Zm-19.35,4.56c6.2-2.73,12.48-1.67,19.11-.54l.24,0v8.37H120.75a7.89,7.89,0,0,0-4,1.09Zm4,11.87h33.69a4,4,0,0,1,4,3.81H116.76A4,4,0,0,1,120.75,76.54Zm33.69-4H139.1V64.66c6.39,1,12.91,1.41,19.34-2.23v11.2A7.89,7.89,0,0,0,154.44,72.54ZM135.77,23.09V19.2a1.44,1.44,0,0,1,1.43-1.44H138a1.45,1.45,0,0,1,1.44,1.44v3.89Zm1.83,4c10.43,0,18.15,3.53,20.25,7.29H117.34C119.44,30.62,127.16,27.09,137.6,27.09ZM106.46,38.38h6.29v9.07Zm50,67.87H118.75a2,2,0,0,1-2-2V84.35h41.69v19.9A2,2,0,0,1,156.44,106.25ZM175,78.17a2.37,2.37,0,0,1-4.73,0v-31a3.44,3.44,0,0,0-3.44-3.44h-4.36V38.38h5.22A7.32,7.32,0,0,1,175,45.69Z"/><path class="cls-3" d="M124.35,89.35a2,2,0,0,0-.35,4h.18a2,2,0,0,0,2-1.83h0A2,2,0,0,0,124.35,89.35Z"/><path class="cls-3" d="M131.78,95.7a1.51,1.51,0,0,0-.26,3h.14a1.49,1.49,0,0,0,1.49-1.37h0A1.51,1.51,0,0,0,131.78,95.7Z"/><path class="cls-3" d="M152.21,98.72a2,2,0,0,0-2.17,1.83,2,2,0,0,0,1.82,2.16H152a2,2,0,0,0,2-1.83h0A2,2,0,0,0,152.21,98.72Z"/><path class="cls-3" d="M145.12,93.19a1.5,1.5,0,0,0-.28,3H145a1.5,1.5,0,0,0,1.49-1.37h0A1.48,1.48,0,0,0,145.12,93.19Z"/><path class="cls-3" d="M167.66,634.38h-5.49c-1.47-5.44-8.89-9.71-18.74-10.93V619.2a5.45,5.45,0,0,0-5.44-5.44h-.79a5.44,5.44,0,0,0-5.43,5.44v4.25c-9.85,1.22-17.27,5.49-18.75,10.93h-7.85a3.32,3.32,0,0,0-2.73,5.22l10.31,14.86v49.8a6,6,0,0,0,6,6h37.69a6,6,0,0,0,6-6v-56.5h3.8v30.41a6.37,6.37,0,0,0,12.73,0V645.69A11.32,11.32,0,0,0,167.66,634.38Zm-9.22,23.28c-6.15,4.49-12.59,4-19.34,3V638.38h19.34Zm-22.34,2.45c-6.3-1.07-12.77-2.09-19.35.25v-6.55h0V638.38H136.1Zm-19.35,4.56c6.2-2.73,12.48-1.67,19.11-.54l.24,0v8.38H120.75a7.88,7.88,0,0,0-4,1.08Zm4,11.88h33.69a4,4,0,0,1,4,3.8H116.76A4,4,0,0,1,120.75,676.55Zm33.69-4H139.1v-7.89c6.39,1,12.91,1.41,19.34-2.23v11.2A7.88,7.88,0,0,0,154.44,672.55Zm-18.67-49.46V619.2a1.44,1.44,0,0,1,1.43-1.44H138a1.45,1.45,0,0,1,1.44,1.44v3.89Zm1.83,4c10.43,0,18.15,3.53,20.25,7.29H117.34C119.44,630.62,127.16,627.09,137.6,627.09Zm-31.14,11.29h6.29v9.07Zm50,67.88H118.75a2,2,0,0,1-2-2V684.35h41.69v19.91A2,2,0,0,1,156.44,706.26ZM175,678.17a2.37,2.37,0,0,1-4.73,0v-31a3.44,3.44,0,0,0-3.44-3.44h-4.36v-5.38h5.22a7.32,7.32,0,0,1,7.31,7.31Z"/><path class="cls-3" d="M124.35,689.35a2,2,0,0,0-.35,4h.18a2,2,0,0,0,2-1.83h0A2,2,0,0,0,124.35,689.35Z"/><path class="cls-3" d="M131.78,695.7a1.51,1.51,0,0,0-.26,3h.14a1.49,1.49,0,0,0,1.49-1.37h0A1.51,1.51,0,0,0,131.78,695.7Z"/><path class="cls-3" d="M152.21,698.72a2,2,0,0,0-2.17,1.83,2,2,0,0,0,1.82,2.16H152a2,2,0,0,0,2-1.82v0A2,2,0,0,0,152.21,698.72Z"/><path class="cls-3" d="M145.12,693.19a1.5,1.5,0,0,0-.28,3H145a1.5,1.5,0,0,0,1.49-1.37h0A1.48,1.48,0,0,0,145.12,693.19Z"/><path class="cls-3" d="M409.57,479.83c-7.73,7.73-9.5,18.54-3.94,24.1s16.37,3.79,24.1-3.94,9.5-18.54,3.94-24.1S417.3,472.1,409.57,479.83Zm2.23,23.08c4.33-2,6.07-6.22,7.75-10.37,2.14-5.25,4.35-10.67,11.71-13.34,3.35,4.11,1.48,12.13-4.36,18C422.23,501.84,416.15,504,411.8,502.91Zm.6-20.25c5-5,11.58-7.09,16-5.5-7.14,3.35-9.57,9.32-11.58,14.25s-3.51,8.61-8.52,9.45C404.61,496.84,406.44,488.61,412.4,482.66Z"/><path class="cls-3" d="M528,243.09c-5.56,5.56-3.79,16.37,3.94,24.11s18.55,9.49,24.11,3.94,3.79-16.38-3.94-24.11S533.52,237.53,528,243.09Zm6.77,21.28c-5.83-5.83-7.71-13.85-4.36-18,7.37,2.66,9.58,8.08,11.71,13.34,1.69,4.14,3.43,8.39,7.76,10.36C545.49,271.17,539.41,269,534.73,264.37Zm18.65,3.7c-5-.84-6.51-4.51-8.52-9.45s-4.44-10.91-11.58-14.25c4.37-1.6,11,.5,16,5.49C555.19,255.81,557,264.05,553.38,268.07Z"/><path class="cls-3" d="M82,337.44c-7.68,1.66-12,11.7-9.74,22.39s10.44,18,18.13,16.37,12-11.71,9.74-22.4S89.69,335.77,82,337.44ZM76.17,359c-1.75-8.07,1-15.82,6.06-17.46,4.75,6.23,3.67,12,2.62,17.55-.83,4.4-1.66,8.91.9,12.92C81.52,370.54,77.56,365.45,76.17,359ZM89.84,372.2c-3.75-3.42-3-7.32-2-12.56s2.17-11.57-2-18.25c4.54,1,9,6.36,10.44,13.26C98,362.88,95.08,370.79,89.84,372.2Z"/><path class="cls-3" d="M210.06,112h-2.5v-2.5a1.5,1.5,0,1,0-3,0V112h-2.5a1.5,1.5,0,0,0,0,3h2.5v2.5a1.5,1.5,0,0,0,3,0V115h2.5a1.5,1.5,0,0,0,0-3Z"/><path class="cls-3" d="M315.52,144H313v-2.5a1.5,1.5,0,0,0-3,0V144h-2.5a1.5,1.5,0,0,0,0,3H310v2.5a1.5,1.5,0,0,0,3,0V147h2.5a1.5,1.5,0,0,0,0-3Z"/><path class="cls-3" d="M427,77.2h-2.5V74.7a1.5,1.5,0,1,0-3,0v2.5H419a1.5,1.5,0,0,0,0,3h2.5v2.5a1.5,1.5,0,0,0,3,0V80.2H427a1.5,1.5,0,0,0,0-3Z"/><path class="cls-3" d="M92.69,144h-2.5v-2.5a1.5,1.5,0,0,0-3,0V144h-2.5a1.5,1.5,0,0,0,0,3h2.5v2.5a1.5,1.5,0,0,0,3,0V147h2.5a1.5,1.5,0,0,0,0-3Z"/><path class="cls-3" d="M475.71,153.62h-2.5v-2.5a1.5,1.5,0,1,0-3,0v2.5h-2.5a1.5,1.5,0,1,0,0,3h2.5v2.5a1.5,1.5,0,0,0,3,0v-2.5h2.5a1.5,1.5,0,0,0,0-3Z"/><path class="cls-3" d="M222.94,292.11h-2.5v-2.5a1.5,1.5,0,0,0-3,0v2.5h-2.5a1.5,1.5,0,0,0,0,3h2.5v2.5a1.5,1.5,0,0,0,3,0v-2.5h2.5a1.5,1.5,0,0,0,0-3Z"/><path class="cls-3" d="M115.35,319.12h-2.5v-2.5a1.5,1.5,0,0,0-3,0v2.5h-2.5a1.5,1.5,0,0,0,0,3h2.5v2.5a1.5,1.5,0,0,0,3,0v-2.5h2.5a1.5,1.5,0,1,0,0-3Z"/><path class="cls-3" d="M183,402.65h-2.5v-2.5a1.5,1.5,0,0,0-3,0v2.5H175a1.5,1.5,0,0,0,0,3h2.5v2.5a1.5,1.5,0,0,0,3,0v-2.5H183a1.5,1.5,0,1,0,0-3Z"/><path class="cls-3" d="M333,376.35h-2.5v-2.5a1.5,1.5,0,0,0-3,0v2.5H325a1.5,1.5,0,0,0,0,3h2.5v2.5a1.5,1.5,0,0,0,3,0v-2.5H333a1.5,1.5,0,0,0,0-3Z"/><path class="cls-3" d="M405,277.11h-2.5v-2.5a1.5,1.5,0,0,0-3,0v2.5H397a1.5,1.5,0,0,0,0,3h2.5v2.5a1.5,1.5,0,0,0,3,0v-2.5H405a1.5,1.5,0,0,0,0-3Z"/><path class="cls-3" d="M582.83,205.41h-2.5v-2.5a1.5,1.5,0,1,0-3,0v2.5h-2.5a1.5,1.5,0,0,0,0,3h2.5v2.5a1.5,1.5,0,0,0,3,0v-2.5h2.5a1.5,1.5,0,0,0,0-3Z"/><path class="cls-3" d="M562.74,91.68h-2.5v-2.5a1.5,1.5,0,0,0-3,0v2.5h-2.5a1.5,1.5,0,0,0,0,3h2.5v2.5a1.5,1.5,0,1,0,3,0v-2.5h2.5a1.5,1.5,0,0,0,0-3Z"/><path class="cls-3" d="M523.79,397.33h-2.5v-2.5a1.5,1.5,0,1,0-3,0v2.5h-2.5a1.5,1.5,0,0,0,0,3h2.5v2.5a1.5,1.5,0,0,0,3,0v-2.5h2.5a1.5,1.5,0,0,0,0-3Z"/><path class="cls-3" d="M648.35,317.19h-2.5v-2.5a1.5,1.5,0,1,0-3,0v2.5h-2.5a1.5,1.5,0,0,0,0,3h2.5v2.5a1.5,1.5,0,0,0,3,0v-2.5h2.5a1.5,1.5,0,0,0,0-3Z"/><path class="cls-3" d="M449.17,520.32h-2.5v-2.5a1.5,1.5,0,0,0-3,0v2.5h-2.5a1.5,1.5,0,1,0,0,3h2.5v2.5a1.5,1.5,0,0,0,3,0v-2.5h2.5a1.5,1.5,0,0,0,0-3Z"/><path class="cls-3" d="M237,501.66h-2.5v-2.5a1.5,1.5,0,0,0-3,0v2.5H229a1.5,1.5,0,0,0,0,3h2.5v2.5a1.5,1.5,0,0,0,3,0v-2.5H237a1.5,1.5,0,0,0,0-3Z"/><path class="cls-3" d="M548.21,507.16h-2.5v-2.5a1.5,1.5,0,0,0-3,0v2.5h-2.5a1.5,1.5,0,0,0,0,3h2.5v2.5a1.5,1.5,0,0,0,3,0v-2.5h2.5a1.5,1.5,0,0,0,0-3Z"/><path class="cls-3" d="M370.36,518.87h-2.5v-2.5a1.5,1.5,0,0,0-3,0v2.5h-2.5a1.5,1.5,0,0,0,0,3h2.5v2.5a1.5,1.5,0,0,0,3,0v-2.5h2.5a1.5,1.5,0,0,0,0-3Z"/><path class="cls-3" d="M400,632.73h-2.5v-2.5a1.5,1.5,0,0,0-3,0v2.5H392a1.5,1.5,0,0,0,0,3h2.5v2.5a1.5,1.5,0,0,0,3,0v-2.5H400a1.5,1.5,0,0,0,0-3Z"/><path class="cls-3" d="M506.85,602.16h-2.5v-2.5a1.5,1.5,0,0,0-3,0v2.5h-2.5a1.5,1.5,0,0,0,0,3h2.5v2.5a1.5,1.5,0,0,0,3,0v-2.5h2.5a1.5,1.5,0,0,0,0-3Z"/><path class="cls-3" d="M262.42,610.64h-2.5v-2.5a1.5,1.5,0,0,0-3,0v2.5h-2.5a1.5,1.5,0,1,0,0,3h2.5v2.5a1.5,1.5,0,0,0,3,0v-2.5h2.5a1.5,1.5,0,0,0,0-3Z"/><path class="cls-3" d="M87.19,599.11h-2.5v-2.5a1.5,1.5,0,0,0-3,0v2.5h-2.5a1.5,1.5,0,1,0,0,3h2.5v2.5a1.5,1.5,0,0,0,3,0v-2.5h2.5a1.5,1.5,0,0,0,0-3Z"/><path class="cls-3" d="M642.85,620.64h-2.5v-2.5a1.5,1.5,0,0,0-3,0v2.5h-2.5a1.5,1.5,0,0,0,0,3h2.5v2.5a1.5,1.5,0,0,0,3,0v-2.5h2.5a1.5,1.5,0,0,0,0-3Z"/><path class="cls-3" d="M648.35,433.88h-2.5v-2.5a1.5,1.5,0,0,0-3,0v2.5h-2.5a1.5,1.5,0,0,0,0,3h2.5v2.5a1.5,1.5,0,0,0,3,0v-2.5h2.5a1.5,1.5,0,0,0,0-3Z"/><path class="cls-3" d="M401,386.13a5.5,5.5,0,1,1,5.5-5.5A5.5,5.5,0,0,1,401,386.13Zm0-8a2.5,2.5,0,1,0,2.5,2.5A2.5,2.5,0,0,0,401,378.13Z"/><path class="cls-3" d="M302.64,455.23a5.5,5.5,0,1,1,5.5-5.5A5.51,5.51,0,0,1,302.64,455.23Zm0-8a2.5,2.5,0,1,0,2.5,2.5A2.5,2.5,0,0,0,302.64,447.23Z"/><path class="cls-3" d="M162.62,560.67a5.5,5.5,0,1,1,5.5-5.5A5.5,5.5,0,0,1,162.62,560.67Zm0-8a2.5,2.5,0,1,0,2.5,2.5A2.51,2.51,0,0,0,162.62,552.67Z"/><path class="cls-3" d="M162.62,235.83a5.5,5.5,0,1,1,5.5-5.5A5.5,5.5,0,0,1,162.62,235.83Zm0-8a2.5,2.5,0,1,0,2.5,2.5A2.51,2.51,0,0,0,162.62,227.83Z"/><path class="cls-3" d="M252,84.2a5.5,5.5,0,1,1,5.5-5.5A5.51,5.51,0,0,1,252,84.2Zm0-8a2.5,2.5,0,1,0,2.5,2.5A2.5,2.5,0,0,0,252,76.2Z"/><path class="cls-3" d="M302.64,256.11a5.5,5.5,0,1,1,5.5-5.5A5.51,5.51,0,0,1,302.64,256.11Zm0-8a2.5,2.5,0,1,0,2.5,2.5A2.5,2.5,0,0,0,302.64,248.11Z"/><path class="cls-3" d="M444,250.61a5.5,5.5,0,1,1,5.5-5.5A5.51,5.51,0,0,1,444,250.61Zm0-8a2.5,2.5,0,1,0,2.5,2.5A2.5,2.5,0,0,0,444,242.61Z"/><path class="cls-3" d="M561.75,455.23a5.5,5.5,0,1,1,5.5-5.5A5.5,5.5,0,0,1,561.75,455.23Zm0-8a2.5,2.5,0,1,0,2.5,2.5A2.5,2.5,0,0,0,561.75,447.23Z"/><path class="cls-3" d="M479.69,634.23a5.5,5.5,0,1,1,5.5-5.5A5.51,5.51,0,0,1,479.69,634.23Zm0-8a2.5,2.5,0,1,0,2.5,2.5A2.51,2.51,0,0,0,479.69,626.23Z"/><path class="cls-3" d="M277.3,296.13a2.5,2.5,0,0,1,0-5h0a2.5,2.5,0,1,1,0,5Z"/><path class="cls-3" d="M332.17,199.87a2.5,2.5,0,1,1,0-5h0a2.5,2.5,0,0,1,0,5Z"/><path class="cls-3" d="M257.17,123.87a2.5,2.5,0,1,1,0-5h0a2.5,2.5,0,0,1,0,5Z"/><path class="cls-3" d="M173.48,171.35a2.5,2.5,0,0,1,0-5h0a2.5,2.5,0,0,1,0,5Z"/><path class="cls-3" d="M83.2,78.2a2.5,2.5,0,0,1,0-5h0a2.5,2.5,0,0,1,0,5Z"/><path class="cls-3" d="M213.44,63.19a2.5,2.5,0,0,1,0-5h0a2.5,2.5,0,0,1,0,5Z"/><path class="cls-3" d="M373.67,103.22a2.5,2.5,0,0,1,0-5h0a2.5,2.5,0,0,1,0,5Z"/><path class="cls-3" d="M436,132.45a2.5,2.5,0,0,1,0-5h0a2.5,2.5,0,1,1,0,5Z"/><path class="cls-3" d="M544.21,142.45a2.5,2.5,0,0,1,0-5h0a2.5,2.5,0,0,1,0,5Z"/><path class="cls-3" d="M464.66,194a2.5,2.5,0,1,1,0-5h0a2.5,2.5,0,0,1,0,5Z"/><path class="cls-3" d="M503.12,267.61a2.5,2.5,0,1,1,0-5h0a2.5,2.5,0,0,1,0,5Z"/><path class="cls-3" d="M527.79,335.87a2.5,2.5,0,0,1,0-5h0a2.5,2.5,0,0,1,0,5Z"/><path class="cls-3" d="M608.35,284.86a2.5,2.5,0,0,1,0-5h0a2.5,2.5,0,0,1,0,5Z"/><path class="cls-3" d="M644.35,202.37a2.5,2.5,0,0,1,0-5h0a2.5,2.5,0,0,1,0,5Z"/><path class="cls-3" d="M655.36,92a2.5,2.5,0,0,1,0-5h0a2.5,2.5,0,0,1,0,5Z"/><path class="cls-3" d="M633.35,374.85a2.5,2.5,0,0,1,0-5h0a2.5,2.5,0,0,1,0,5Z"/><path class="cls-3" d="M649.85,535.52a2.5,2.5,0,0,1,0-5h0a2.5,2.5,0,0,1,0,5Z"/><path class="cls-3" d="M597.89,520.37a2.5,2.5,0,1,1,0-5h0a2.5,2.5,0,0,1,0,5Z"/><path class="cls-3" d="M641.35,486.69a2.5,2.5,0,0,1,0-5h0a2.5,2.5,0,0,1,0,5Z"/><path class="cls-3" d="M556.25,538a2.5,2.5,0,1,1,0-5h0a2.5,2.5,0,0,1,0,5Z"/><path class="cls-3" d="M593,443.38a2.5,2.5,0,1,1,0-5h0a2.5,2.5,0,0,1,0,5Z"/><path class="cls-3" d="M502.86,557.67a2.5,2.5,0,0,1,0-5h0a2.5,2.5,0,0,1,0,5Z"/><path class="cls-3" d="M525.29,642.23a2.5,2.5,0,0,1,0-5h0a2.5,2.5,0,0,1,0,5Z"/><path class="cls-3" d="M608.55,642.23a2.5,2.5,0,0,1,0-5h0a2.5,2.5,0,0,1,0,5Z"/><path class="cls-3" d="M437.17,612.87a2.5,2.5,0,1,1,0-5h0a2.5,2.5,0,0,1,0,5Z"/><path class="cls-3" d="M376.17,602.87a2.5,2.5,0,1,1,0-5h0a2.5,2.5,0,0,1,0,5Z"/><path class="cls-3" d="M462.39,424.3a2.5,2.5,0,0,1,0-5h0a2.5,2.5,0,0,1,0,5Z"/><path class="cls-3" d="M343,492.41a2.5,2.5,0,0,1,0-5h0a2.5,2.5,0,0,1,0,5Z"/><path class="cls-3" d="M323.7,573.57a2.5,2.5,0,0,1,0-5h0a2.5,2.5,0,0,1,0,5Z"/><path class="cls-3" d="M266.67,559.67a2.5,2.5,0,0,1,0-5h0a2.5,2.5,0,0,1,0,5Z"/><path class="cls-3" d="M220,636.73a2.5,2.5,0,0,1,0-5h0a2.5,2.5,0,0,1,0,5Z"/><path class="cls-3" d="M184.48,490.69a2.5,2.5,0,0,1,0-5h0a2.5,2.5,0,0,1,0,5Z"/><path class="cls-3" d="M179,606.16a2.5,2.5,0,0,1,0-5h0a2.5,2.5,0,1,1,0,5Z"/><path class="cls-3" d="M101.84,570.05a2.5,2.5,0,0,1,0-5h0a2.5,2.5,0,1,1,0,5Z"/><path class="cls-3" d="M233,462.38a2.5,2.5,0,1,1,0-5h0a2.5,2.5,0,0,1,0,5Z"/><path class="cls-3" d="M286.69,488.19a2.5,2.5,0,1,1,0-5h0a2.5,2.5,0,0,1,0,5Z"/><path class="cls-3" d="M382.52,346.36a2.5,2.5,0,1,1,0-5h0a2.5,2.5,0,0,1,0,5Z"/><path class="cls-3" d="M292.88,347.37a2.5,2.5,0,0,1,0-5h0a2.5,2.5,0,0,1,0,5Z"/><path class="cls-3" d="M307.68,416a2.5,2.5,0,0,1,0-5h0a2.5,2.5,0,1,1,0,5Z"/><path class="cls-3" d="M315.19,288.87a2.5,2.5,0,0,1,0-5h0a2.5,2.5,0,0,1,0,5Z"/><path class="cls-3" d="M354.25,265.11a2.5,2.5,0,0,1,0-5h0a2.5,2.5,0,0,1,0,5Z"/><path class="cls-3" d="M242.92,253.11a2.5,2.5,0,0,1,0-5h0a2.5,2.5,0,0,1,0,5Z"/><path class="cls-3" d="M192.61,344.87a2.5,2.5,0,0,1,0-5h0a2.5,2.5,0,0,1,0,5Z"/><path class="cls-3" d="M122.18,240.91a2.5,2.5,0,0,1,0-5h0a2.5,2.5,0,1,1,0,5Z"/><path class="cls-3" d="M80.68,301.4a2.5,2.5,0,0,1,0-5h0a2.5,2.5,0,0,1,0,5Z"/><path class="cls-3" d="M136.68,378.85a2.5,2.5,0,0,1,0-5h0a2.5,2.5,0,0,1,0,5Z"/><path class="cls-3" d="M73.68,408.65a2.5,2.5,0,0,1,0-5h0a2.5,2.5,0,0,1,0,5Z"/><path class="cls-3" d="M76.18,515.37a2.5,2.5,0,0,1,0-5h0a2.5,2.5,0,0,1,0,5Z"/><path class="cls-3" d="M63.19,188.62a2.5,2.5,0,0,1,0-5h0a2.5,2.5,0,0,1,0,5Z"/><path class="cls-3" d="M402.39,454.3a2.5,2.5,0,0,1,0-5h0a2.5,2.5,0,0,1,0,5Z"/><path class="cls-3" d="M390.52,540.32a2.5,2.5,0,1,1,0-5h0a2.5,2.5,0,0,1,0,5Z"/><path class="cls-3" d="M447.39,471.3a2.5,2.5,0,0,1,0-5h0a2.5,2.5,0,0,1,0,5Z"/></g></g></g></svg>